<?xml version="1.0" encoding="UTF-8"?>
<svg xmlns="http://www.w3.org/2000/svg" xmlns:xlink="http://www.w3.org/1999/xlink" width="32pt" height="26pt" viewBox="0 0 32 26" version="1.1">
<defs>
<clipPath id="clip1">
  <path d="M 0.0117188 0 L 31.988281 0 L 31.988281 26 L 0.0117188 26 Z M 0.0117188 0 "/>
</clipPath>
<radialGradient id="radial0" gradientUnits="userSpaceOnUse" cx="14.707496" cy="11.792896" fx="14.707496" fy="11.792896" r="18.851601" gradientTransform="matrix(1.082139,0,0,1.105497,0.0117538,0)">
<stop offset="0" style="stop-color:rgb(100%,100%,100%);stop-opacity:1;"/>
<stop offset="1" style="stop-color:rgb(70.196078%,70.196078%,70.196078%);stop-opacity:1;"/>
</radialGradient>
</defs>
<g id="surface1">
<g clip-path="url(#clip1)" clip-rule="nonzero">
<path style=" stroke:none;fill-rule:evenodd;fill:url(#radial0);" d="M 0.0117188 26.074219 L 16.035156 0 L 31.84375 26.074219 Z M 0.0117188 26.074219 "/>
</g>
<path style="fill:none;stroke-width:16;stroke-linecap:butt;stroke-linejoin:round;stroke:rgb(100%,0%,0%);stroke-opacity:1;stroke-miterlimit:10;" d="M 97.65051 323.399788 C 97.65051 261.251075 145.489353 210.959244 204.420274 210.959244 C 232.728891 210.959244 259.880667 222.816126 279.887238 243.865422 C 299.893809 264.98133 311.190037 293.557748 311.190037 323.399788 C 311.190037 385.48189 263.351194 435.773721 204.420274 435.773721 C 145.489353 435.773721 97.65051 385.48189 97.65051 323.399788 Z M 97.65051 323.399788 " transform="matrix(0.057403,0,0,0.0586421,0.0117538,0)"/>
<path style="fill:none;stroke-width:16;stroke-linecap:butt;stroke-linejoin:round;stroke:rgb(100%,100%,0%);stroke-opacity:1;stroke-miterlimit:10;" d="M 169.23865 217.287355 C 169.23865 155.138642 217.077492 104.846811 276.008413 104.846811 C 304.317031 104.846811 331.468806 116.703693 351.475377 137.752989 C 371.481949 158.868897 382.710126 187.445315 382.710126 217.287355 C 382.710126 279.369456 334.939334 329.661288 276.008413 329.661288 C 217.077492 329.661288 169.23865 279.369456 169.23865 217.287355 Z M 169.23865 217.287355 " transform="matrix(0.057403,0,0,0.0586421,0.0117538,0)"/>
<path style="fill:none;stroke-width:16;stroke-linecap:butt;stroke-linejoin:round;stroke:rgb(100%,60%,0%);stroke-opacity:1;stroke-miterlimit:10;" d="M 239.12555 323.399788 C 239.12555 261.251075 286.964392 210.959244 345.895313 210.959244 C 374.203931 210.959244 401.355706 222.816126 421.362278 243.865422 C 441.368849 264.98133 452.665076 293.557748 452.665076 323.399788 C 452.665076 385.48189 404.826234 435.773721 345.895313 435.773721 C 286.964392 435.773721 239.12555 385.48189 239.12555 323.399788 Z M 239.12555 323.399788 " transform="matrix(0.057403,0,0,0.0586421,0.0117538,0)"/>
</g>
</svg>
